HIERARCHY
ROOT pelvis
{
	OFFSET 0.003123 -0.012037 -0.351407
	CHANNELS 6 Xposition Yposition Zposition Zrotation Yrotation Xrotation 
	JOINT left_hip
	{
		OFFSET 0.058189 0.026001 -0.092763
		CHANNELS 3 Zrotation Yrotation Xrotation
		JOINT left_knee
		{
			OFFSET 0.054695 0.009396 -0.378753
			CHANNELS 3 Zrotation Yrotation Xrotation
			JOINT left_ankle
			{
				OFFSET -0.043453 0.031876 -0.403060
				CHANNELS 3 Zrotation Yrotation Xrotation
				JOINT left_foot
				{
					OFFSET 0.047257 -0.118216 -0.057997
					CHANNELS 3 Zrotation Yrotation Xrotation
					End Site
					{
						OFFSET 0.000000 0.000000 0.000000
					}
				}
			}
		}
	}
	JOINT right_hip
	{
		OFFSET -0.063267 0.021250 -0.103908
		CHANNELS 3 Zrotation Yrotation Xrotation
		JOINT right_knee
		{
			OFFSET -0.044210 0.016824 -0.362380
			CHANNELS 3 Zrotation Yrotation Xrotation
			JOINT right_ankle
			{
				OFFSET 0.015417 0.020192 -0.410728
				CHANNELS 3 Zrotation Yrotation Xrotation
				JOINT right_foot
				{
					OFFSET -0.038812 -0.119049 -0.058328
					CHANNELS 3 Zrotation Yrotation Xrotation
					End Site
					{
						OFFSET 0.000000 0.000000 0.000000
					}
				}
			}
		}
	}
	JOINT spine1
	{
		OFFSET -0.002763 0.027618 0.109891
		CHANNELS 3 Zrotation Yrotation Xrotation
		JOINT spine2
		{
			OFFSET 0.009448 0.005940 0.131853
			CHANNELS 3 Zrotation Yrotation Xrotation
			JOINT spine3
			{
				OFFSET -0.011330 -0.028447 0.052235
				CHANNELS 3 Zrotation Yrotation Xrotation
				JOINT neck
				{
					OFFSET -0.012164 0.031615 0.165167
					CHANNELS 3 Zrotation Yrotation Xrotation
					JOINT head
					{
						OFFSET 0.024783 -0.020737 0.160452
						CHANNELS 3 Zrotation Yrotation Xrotation
						End Site
						{
							OFFSET 0.000000 0.000000 0.000000
						}
					}
				}
				JOINT left_collar
				{
					OFFSET 0.046364 0.007220 0.084944
					CHANNELS 3 Zrotation Yrotation Xrotation
					JOINT left_shoulder
					{
						OFFSET 0.119239 0.015461 0.057728
						CHANNELS 3 Zrotation Yrotation Xrotation
						JOINT left_elbow
						{
							OFFSET 0.254123 0.042459 -0.072151
							CHANNELS 3 Zrotation Yrotation Xrotation
							JOINT left_wrist
							{
								OFFSET 0.251987 0.002472 0.023221
								CHANNELS 3 Zrotation Yrotation Xrotation
								JOINT left_index1
								{
									OFFSET 0.101902 -0.019351 -0.008688
									CHANNELS 3 Zrotation Yrotation Xrotation
									JOINT left_index2
									{
										OFFSET 0.031949 -0.003010 0.002218
										CHANNELS 3 Zrotation Yrotation Xrotation
										JOINT left_index3
										{
											OFFSET 0.022545 -0.000055 -0.002350
											CHANNELS 3 Zrotation Yrotation Xrotation
											End Site
											{
												OFFSET 0.000000 0.000000 0.000000
											}
										}
									}
								}
								JOINT left_middle1
								{
									OFFSET 0.109398 0.003981 -0.006328
									CHANNELS 3 Zrotation Yrotation Xrotation
									JOINT left_middle2
									{
										OFFSET 0.030611 0.004023 0.000807
										CHANNELS 3 Zrotation Yrotation Xrotation
										JOINT left_middle3
										{
											OFFSET 0.023515 0.004114 -0.002009
											CHANNELS 3 Zrotation Yrotation Xrotation
											End Site
											{
												OFFSET 0.000000 0.000000 0.000000
											}
										}
									}
								}
								JOINT left_pinky1
								{
									OFFSET 0.084047 0.043750 -0.014539
									CHANNELS 3 Zrotation Yrotation Xrotation
									JOINT left_pinky2
									{
										OFFSET 0.015471 0.011999 -0.001132
										CHANNELS 3 Zrotation Yrotation Xrotation
										JOINT left_pinky3
										{
											OFFSET 0.015533 0.011217 -0.001665
											CHANNELS 3 Zrotation Yrotation Xrotation
											End Site
											{
												OFFSET 0.000000 0.000000 0.000000
											}
										}
									}
								}
								JOINT left_ring1
								{
									OFFSET 0.097444 0.027345 -0.009268
									CHANNELS 3 Zrotation Yrotation Xrotation
									JOINT left_ring2
									{
										OFFSET 0.028047 0.005266 0.001485
										CHANNELS 3 Zrotation Yrotation Xrotation
										JOINT left_ring3
										{
											OFFSET 0.022822 0.007094 -0.001458
											CHANNELS 3 Zrotation Yrotation Xrotation
											End Site
											{
												OFFSET 0.000000 0.000000 0.000000
											}
										}
									}
								}
								JOINT left_thumb1
								{
									OFFSET 0.040636 -0.025611 -0.017977
									CHANNELS 3 Zrotation Yrotation Xrotation
									JOINT left_thumb2
									{
										OFFSET 0.017016 -0.024978 0.000976
										CHANNELS 3 Zrotation Yrotation Xrotation
										JOINT left_thumb3
										{
											OFFSET 0.020523 -0.015523 -0.005160
											CHANNELS 3 Zrotation Yrotation Xrotation
											End Site
											{
												OFFSET 0.000000 0.000000 0.000000
											}
										}
									}
								}
							}
						}
					}
				}
				JOINT right_collar
				{
					OFFSET -0.047695 0.013400 0.084339
					CHANNELS 3 Zrotation Yrotation Xrotation
					JOINT right_shoulder
					{
						OFFSET -0.102578 0.012669 0.053524
						CHANNELS 3 Zrotation Yrotation Xrotation
						JOINT right_elbow
						{
							OFFSET -0.271150 0.026467 -0.036492
							CHANNELS 3 Zrotation Yrotation Xrotation
							JOINT right_wrist
							{
								OFFSET -0.249267 0.015325 -0.004533
								CHANNELS 3 Zrotation Yrotation Xrotation
								JOINT right_index1
								{
									OFFSET -0.099880 -0.019600 -0.011783
									CHANNELS 3 Zrotation Yrotation Xrotation
									JOINT right_index2
									{
										OFFSET -0.031948 -0.003011 0.002218
										CHANNELS 3 Zrotation Yrotation Xrotation
										JOINT right_index3
										{
											OFFSET -0.022545 -0.000055 -0.002349
											CHANNELS 3 Zrotation Yrotation Xrotation
											End Site
											{
												OFFSET 0.000000 0.000000 0.000000
											}
										}
									}
								}
								JOINT right_middle1
								{
									OFFSET -0.107376 0.003734 -0.009422
									CHANNELS 3 Zrotation Yrotation Xrotation
									JOINT right_middle2
									{
										OFFSET -0.030611 0.004023 0.000807
										CHANNELS 3 Zrotation Yrotation Xrotation
										JOINT right_middle3
										{
											OFFSET -0.023515 0.004114 -0.002009
											CHANNELS 3 Zrotation Yrotation Xrotation
											End Site
											{
												OFFSET 0.000000 0.000000 0.000000
											}
										}
									}
								}
								JOINT right_pinky1
								{
									OFFSET -0.082027 0.043503 -0.017634
									CHANNELS 3 Zrotation Yrotation Xrotation
									JOINT right_pinky2
									{
										OFFSET -0.015471 0.011999 -0.001132
										CHANNELS 3 Zrotation Yrotation Xrotation
										JOINT right_pinky3
										{
											OFFSET -0.015533 0.011216 -0.001665
											CHANNELS 3 Zrotation Yrotation Xrotation
											End Site
											{
												OFFSET 0.000000 0.000000 0.000000
											}
										}
									}
								}
								JOINT right_ring1
								{
									OFFSET -0.095423 0.027099 -0.012362
									CHANNELS 3 Zrotation Yrotation Xrotation
									JOINT right_ring2
									{
										OFFSET -0.028047 0.005266 0.001485
										CHANNELS 3 Zrotation Yrotation Xrotation
										JOINT right_ring3
										{
											OFFSET -0.022822 0.007093 -0.001459
											CHANNELS 3 Zrotation Yrotation Xrotation
											End Site
											{
												OFFSET 0.000000 0.000000 0.000000
											}
										}
									}
								}
								JOINT right_thumb1
								{
									OFFSET -0.038613 -0.025861 -0.021074
									CHANNELS 3 Zrotation Yrotation Xrotation
									JOINT right_thumb2
									{
										OFFSET -0.017015 -0.024978 0.000976
										CHANNELS 3 Zrotation Yrotation Xrotation
										JOINT right_thumb3
										{
											OFFSET -0.020526 -0.015522 -0.005157
											CHANNELS 3 Zrotation Yrotation Xrotation
											End Site
											{
												OFFSET 0.000000 0.000000 0.000000
											}
										}
									}
								}
							}
						}
					}
				}
			}
		}
	}
}
MOTION
Frames: 4
Frame Time: 0.050000
-0.008290 0.882012 0.083038 0.625584 -0.168777 -73.675049 -5.688940 -3.668573 -40.544752 -1.729603 9.354492 58.622337 11.908752 -35.078864 -126.332374 0.000000 0.000000 0.000000 5.302245 6.339472 -65.251859 -4.329593 -11.023501 62.623304 -8.323767 5.787757 -4.988802 0.000000 0.000000 0.000000 -0.773983 0.893686 11.319103 -2.728785 4.543074 -22.429296 -3.009554 -4.885161 16.717272 1.035340 -7.970662 -11.739353 0.000000 0.000000 0.000000 -9.887187 -4.213843 5.219268 -74.671574 33.196866 -53.971637 -110.614180 17.423267 -8.891830 -1.986933 7.002942 -32.815717 -13.646951 37.467107 3.696046 -50.317462 51.914291 -12.535731 0.000000 0.000000 0.000000 -17.491385 46.309466 -9.119379 -14.042910 48.439205 -8.258418 0.000000 0.000000 0.000000 -35.011811 32.483959 -41.922513 22.232052 29.692211 -9.562898 0.000000 0.000000 0.000000 -25.250657 52.682099 -15.700652 -16.781835 38.538294 -14.372343 0.000000 0.000000 0.000000 20.786454 1.240826 -8.254009 -28.372481 -4.677080 -8.087249 0.000000 0.000000 0.000000 5.788826 3.769106 3.566912 72.248811 -22.214066 -34.204392 101.122302 -0.440458 -4.611283 -0.363773 -7.212762 -26.432552 14.722958 -43.186525 3.102774 50.034062 -59.863781 -19.978075 0.000000 0.000000 0.000000 16.637516 -49.496787 -10.879980 6.611745 -53.574027 -6.194828 0.000000 0.000000 0.000000 28.998782 -33.655174 -40.473241 -29.594207 -29.769497 -6.839752 0.000000 0.000000 0.000000 22.748958 -54.747826 -17.077483 10.551847 -43.051062 -13.758785 0.000000 0.000000 0.000000 -18.295357 -2.550714 -3.609744 29.681241 5.376099 -8.803678 0.000000 0.000000 0.000000 
-0.005204 0.883085 0.075579 0.578245 -0.224760 -75.543672 -5.724023 -3.244574 -39.536612 -2.525809 8.267449 59.571649 9.059718 -37.910059 -128.412397 0.000000 0.000000 0.000000 5.365260 6.046029 -63.657705 -4.088413 -10.742662 62.393818 -8.014992 5.496976 -4.274422 0.000000 0.000000 0.000000 -0.756350 0.931320 10.756716 -2.592454 4.639486 -22.045217 -2.641461 -5.142631 16.723784 0.599171 -8.100870 -9.804215 0.000000 0.000000 0.000000 -7.772648 -1.528035 3.893289 -60.005780 36.919165 -44.879214 -86.604331 19.301379 -7.214744 -4.028198 11.404526 -24.821138 -10.462015 37.557286 3.169029 -25.010832 42.807774 -4.979923 0.000000 0.000000 0.000000 -12.831654 42.596444 -8.305452 -5.578074 38.659488 -4.829704 0.000000 0.000000 0.000000 -25.064128 27.912475 -34.031809 22.027831 27.672030 -9.248259 0.000000 0.000000 0.000000 -16.244865 47.185399 -12.546214 -8.595413 33.399928 -10.251563 0.000000 0.000000 0.000000 18.604692 2.479427 -3.026279 -28.078862 -3.788410 -7.933839 0.000000 0.000000 0.000000 4.112159 1.209847 2.275197 58.581125 -28.606095 -30.712420 79.227610 -5.021726 -7.475620 2.378997 -12.533935 -19.847350 11.158676 -40.166066 2.359245 21.705875 -46.402095 -5.426296 0.000000 0.000000 0.000000 12.599354 -43.628405 -9.547596 1.514460 -40.582811 -4.064101 0.000000 0.000000 0.000000 22.173325 -27.710472 -33.273428 -25.175020 -26.897351 -7.992045 0.000000 0.000000 0.000000 15.060637 -47.517212 -13.606765 4.748823 -34.696364 -9.721630 0.000000 0.000000 0.000000 -17.792364 -3.382884 0.431015 29.365367 5.012767 -8.692317 0.000000 0.000000 0.000000 
-0.001526 0.887568 0.066791 0.525504 -0.274446 -77.632337 -5.726087 -2.675139 -37.990813 -3.362611 7.040551 59.588968 7.715076 -39.828199 -130.863950 0.000000 0.000000 0.000000 5.382258 5.682832 -61.433634 -3.564314 -10.127159 61.276114 -7.407409 4.949666 -3.117896 0.000000 0.000000 0.000000 -0.733232 0.938409 10.171200 -2.436475 4.760575 -21.634826 -2.251550 -5.409629 16.730656 0.167976 -8.193009 -7.873044 0.000000 0.000000 0.000000 -5.947283 0.849241 2.793840 -46.215644 39.736581 -36.442122 -65.510435 19.385462 -4.908272 -4.355228 15.699543 -17.969175 -7.891449 35.812935 2.705506 -13.637059 32.455268 -2.110884 0.000000 0.000000 0.000000 -9.892806 38.021489 -7.497036 -1.545568 29.728353 -3.462966 0.000000 0.000000 0.000000 -19.617592 21.874635 -27.066121 19.877505 24.428485 -9.111470 0.000000 0.000000 0.000000 -11.034784 40.590704 -10.378013 -4.110007 27.148228 -7.672796 0.000000 0.000000 0.000000 17.898017 3.560671 1.308576 -27.869541 -3.439427 -7.803076 0.000000 0.000000 0.000000 2.721720 -1.040992 1.211743 45.807386 -33.716082 -26.508834 60.004208 -8.619729 -7.506224 2.667011 -17.188230 -13.856546 8.479553 -36.889132 1.906790 11.312536 -33.238173 -2.120310 0.000000 0.000000 0.000000 10.290894 -38.057787 -8.461267 -0.585011 -29.850482 -3.339155 0.000000 0.000000 0.000000 19.144025 -21.293707 -26.872394 -20.823361 -23.155371 -8.420785 0.000000 0.000000 0.000000 10.973679 -40.210519 -11.306312 2.064923 -26.778467 -7.435994 0.000000 0.000000 0.000000 -18.571281 -4.103573 4.144329 29.519492 4.903446 -8.517737 0.000000 0.000000 0.000000 
0.003559 0.895455 0.058461 0.476371 -0.321149 -79.681774 -5.678651 -2.024380 -36.037602 -4.040057 5.891781 58.575913 7.304811 -41.047715 -133.261986 0.000000 0.000000 0.000000 5.323499 5.294021 -58.699548 -2.816687 -9.207582 59.232716 -6.545687 4.158057 -1.617415 0.000000 0.000000 0.000000 -0.707647 0.929340 9.596466 -2.278704 4.888480 -21.237337 -1.875866 -5.664191 16.737247 -0.214427 -8.244615 -6.139574 0.000000 0.000000 0.000000 -4.360635 2.948417 1.870201 -33.272878 41.559895 -28.425501 -47.541145 18.409435 -3.004416 -2.807768 19.296411 -11.373951 -5.905886 33.478857 2.323041 -7.775003 22.910751 -1.043206 0.000000 0.000000 0.000000 -8.060333 33.347519 -6.724291 0.529127 21.746977 -2.634658 0.000000 0.000000 0.000000 -17.076001 15.627346 -20.632315 17.143521 20.748904 -8.710000 0.000000 0.000000 0.000000 -8.121350 33.846659 -8.680179 -1.778269 20.863954 -5.871322 0.000000 0.000000 0.000000 18.016138 4.514089 5.300859 -27.766240 -3.354513 -7.637873 0.000000 0.000000 0.000000 1.541956 -3.020562 0.321169 33.694387 -37.554561 -21.753320 43.243436 -10.699606 -6.119883 0.906709 -20.871217 -7.778406 6.564154 -33.949335 1.595760 6.498461 -22.564569 -1.100634 0.000000 0.000000 0.000000 8.922961 -33.163290 -7.508141 -1.600834 -21.155329 -2.669258 0.000000 0.000000 0.000000 18.090072 -15.527722 -20.789557 -17.125790 -19.221805 -8.111057 0.000000 0.000000 0.000000 8.779324 -33.526992 -9.419572 0.865722 -19.826002 -5.738716 0.000000 0.000000 0.000000 -19.620528 -4.677757 7.792164 29.724226 4.883745 -8.296811 0.000000 0.000000 0.000000 
